<?xml version="1.0" encoding="utf-8"?>
<!-- Generator: Adobe Illustrator 19.2.1, SVG Export Plug-In . SVG Version: 6.00 Build 0)  -->
<svg version="1.1" id="Layer_1" xmlns="http://www.w3.org/2000/svg" xmlns:xlink="http://www.w3.org/1999/xlink" x="0px" y="0px"
	 viewBox="0 0 250.8 348.9" style="enable-background:new 0 0 250.8 348.9;" xml:space="preserve">
<style type="text/css">
	.st0{fill:#58595B;}
	.st1{fill:#BC3227;}
	.st2{fill:#FFF7E7;}
</style>
<g>
	<g>
		<g>
			<path class="st0" d="M66.6,341.9v6.7h-1.7v-14.5h15.7v1.6H66.6v4.7h12.8v1.6H66.6z"/>
			<path class="st0" d="M99.6,333.8c6.4,0,9.7,3.3,9.7,7.6c0,4.3-3.3,7.6-9.7,7.6s-9.7-3.2-9.7-7.6C89.8,337,93.2,333.8,99.6,333.8z
				 M99.6,347.3c5.4,0,8-2.5,8-6c0-3.5-2.7-6-8-6c-5.4,0-8.1,2.5-8.1,6C91.5,344.8,94.2,347.3,99.6,347.3z"/>
			<path class="st0" d="M119.3,334.1h11.5c3.1,0,5.6,1.2,5.6,4.7c0,3.4-2.6,4.6-5.6,4.6h-1.3l7.6,5.2h-2.6l-7.3-5.2H121v5.2h-1.7
				V334.1z M130.8,341.8c2.2,0,3.9-0.8,3.9-3.1c0-2.3-1.7-3.1-3.9-3.1H121v6.2H130.8z"/>
			<path class="st0" d="M164.1,347.7c-0.9,0.3-3.5,1.2-7.4,1.2c-7.5,0-10.7-3.2-10.7-7.6c0-4.3,3.1-7.6,10.7-7.6
				c3.9,0,6.4,0.8,7.4,1.2l-0.4,1.5c-1.5-0.5-3.9-1.1-7-1.1c-6.4,0-9,2.5-9,6c0,3.5,2.6,6,9,6c3.1,0,5.5-0.6,7-1.1L164.1,347.7z"/>
			<path class="st0" d="M173.9,348.6v-14.5h15.7v1.6h-14.1v4.7h12.8v1.6h-12.8v5.1H190v1.6H173.9z"/>
		</g>
	</g>
	<g>
		<g>
			<path class="st0" d="M42.6,312c0,3.5-2.9,6.4-6.4,6.4h-8c-3.5,0-6.4-2.9-6.4-6.4v-32.2c0-3.5,2.9-6.4,6.4-6.4h8
				c3.5,0,6.4,2.9,6.4,6.4V312z M37.8,279.8c0-1-0.6-1.6-1.6-1.6h-8c-1,0-1.6,0.6-1.6,1.6V312c0,1,0.6,1.6,1.6,1.6h8
				c1,0,1.6-0.6,1.6-1.6V279.8z"/>
			<path class="st0" d="M77.5,299.3l4.6,19.1H77l-4.1-18.9h-6.8v18.9h-4.8v-45.1h14.5c3.6,0,6.4,2.9,6.4,6.4v13.3
				C82.2,296.1,80.2,298.6,77.5,299.3z M77.4,279.8c0-1-0.6-1.6-1.6-1.6h-9.7v16.5h9.7c1,0,1.6-0.6,1.6-1.6V279.8z"/>
			<path class="st0" d="M118.6,318.5h-17.7v-45.1h17.7v4.8h-12.9v14h9.7v4.8h-9.7v16.6h12.9V318.5z"/>
			<path class="st0" d="M156.5,318.5h-4.1l-12-33.4v33.4h-4.8v-45.1h5.3l10.8,30.4v-30.4h4.8V318.5z"/>
			<path class="st0" d="M196.1,312c0,3.5-2.9,6.4-6.4,6.4h-14.5v-45.1h14.5c3.5,0,6.4,2.9,6.4,6.4V312z M191.3,279.8
				c0-1-0.6-1.6-1.6-1.6h-9.7v35.4h9.7c1,0,1.6-0.6,1.6-1.6V279.8z"/>
			<path class="st0" d="M231.2,311.2h-12.4l-1.5,7.3h-4.9l9.7-45.1h5.9l9.7,45.1h-4.9L231.2,311.2z M219.7,306.4h10.4l-5.2-25.4
				L219.7,306.4z"/>
		</g>
	</g>
	<g>
		<path class="st0" d="M46.1,143.8c1.8,3.8,4.2,7.4,5.8,11.3c1.4,3.3,1.1,7.2,3.2,10.2c1.1,1.6,2.7,2.7,4.2,3.9
			c5.3,4.3,9.6,10,12.4,16.3c1.1,2.6,1.7,5,3.7,7c2.3,2.3,4.6,2.7,7.3,4.1c1.9,1,3,2.5,4.6,4c6.3,6.1,16.9,9.7,25,12.9
			c6.5,2.5,13.2,2,20,2c2.9,0,6-0.5,8.8-0.9c3.1-0.4,5.8-2,8.6-3.1c2.9-1.1,6-1.6,9-2.4c2.3-0.6,4.9-1,6.9-2.4
			c2.5-1.8,4.6-3.7,7.6-4.5c3-0.8,6.3-1.6,9.3-2.3c1.9-0.4,3.9-0.8,5.8-1.2c0.8-0.2,1.7-0.4,2.5-0.6c2-0.5,4.2-1.2,6-2.2
			c1.7-0.9,2.6-2.4,4.3-3.4c3.3-2,7.8-1.6,11.5-1.2c5.7,0.6,9.1-1.5,13.4-5c2.7-2.2,6.4-4.3,8.4-7.1c0.6-0.8,1-1.7,1.6-2.4
			c0.5-0.7,1.2-1.2,1.8-1.7c1-0.8,2.1-1.6,3.3-1.7c-0.1,1.2-0.2,2.3-0.4,3.4c-0.2,1.2-0.4,2.4-0.7,3.6c-0.2,0.9-0.4,1.7-0.6,2.6
			c-0.5,2.2-1.2,3.7-2.4,5.6c-1.4,2.1-2.7,3.2-3.7,5.6c-1.2,2.8-2.7,5-5.2,6.6c-10,6.5-16.5,17.1-25.5,24.8
			c-3.6,3.1-7.8,6.1-12.6,5.8c-1,0-2.1-0.3-3.1,0.1c-0.8,0.3-1.4,0.9-2.1,1.4c-2.2,2-4.8,3.5-7.6,4.6c-2.9,1.1-6,1.1-8.8,2.2
			c-2.2,0.8-3.8,2-6,2.7c-2.3,0.8-4.5,1.4-6.7,2.6c-3.4,1.8-6.4,4.4-10.2,5.4c-3.7,1-7.6,1-11.4,1.5c-3.3,0.4-6.7,0.3-10,0.3
			c-7.6,0-15.2,0.6-22.7-1.1c-8.2-1.8-16-4.9-23.9-7.4c-6.8-2.1-11.6-3.5-17.7-7.3c-3.1-2-6.5-3.6-9.4-6c-3.4-2.7-7.3-5.1-10.4-8.2
			c-3.2-3.3-6.1-7-9.3-10.2c-3.3-3.3-3.5-8.5-4.5-12.8c-1.1-4.8-2.8-6.6-6.3-10c-2.8-2.8-5.8-5.3-8.8-7.9
			c-4.2-3.7-5.2-10.3-7.1-15.2c-1.2-3.1-2.1-6.9-1.8-10.3c0.3-3.6,2.3-6.8,1.2-10.5c-0.8-2.8-2.3-5-2.7-8c-0.4-2.9-1.1-6.1-0.7-9.1
			c0.6-4.4,1.1-8.7,2.2-13C3.1,111.9,3,107.7,5,105c1.5-2,4-2.8,5.7-4.6c2.1-2.2,3.1-4.4,6.5-4.8c0.5-0.1,1-0.1,1.3-0.4
			c0.2-0.2,0.3-0.5,0.4-0.7c0.8-2.5,1.5-5,2-7.6c0.4-2.3,0.8-4.8,2.3-6.6c3.6-4.3,9.3-6.7,14.4-8.5c3.7-1.3,7.7,0.2,11.4-1.2
			c3.7-1.4,6.7-4.2,10.3-5.8c4.2-1.9,9.4-1.3,13-4.1c0.4-0.3,0.8-0.6,1.3-0.7c4.9-0.5-3.2,10.5-3.9,11.4c-0.8,1.1-1.7,2.2-2.8,3.1
			c-1.2,1-2.6,1.9-3.8,2.8c-3.9,2.9-8.6,8.8-9.6,13.6c-0.3,1.6-0.7,3.3-1,4.9c-0.2,0.8-0.3,1.6-0.2,2.5c0.2,2.4,2.3,5.2,0.8,7.5
			c-0.7,1-1.8,1.6-2.7,2.5c-3.2,3-2.9,8.2-5.4,11.8c-0.6,0.8-1.3,1.5-1.8,2.3c-1.9,2.9-0.4,6.3-0.2,9.4
			C43.4,135.9,44.3,140,46.1,143.8z"/>
		<path class="st1" d="M204.7,108.6c-1.8-3.8-4.2-7.4-5.8-11.3c-1.4-3.3-1.1-7.2-3.2-10.2c-1.1-1.6-2.7-2.7-4.2-3.9
			c-5.3-4.3-9.6-10-12.4-16.3c-1.1-2.6-1.7-5-3.7-7c-2.3-2.3-4.6-2.7-7.3-4.1c-1.9-1-3-2.5-4.6-4c-6.3-6.1-16.9-9.7-25-12.9
			c-6.5-2.5-13.2-2-20-2c-2.9,0-6,0.5-8.8,0.9c-3.1,0.4-5.8,2-8.6,3.1c-2.9,1.1-6,1.6-9,2.4c-2.3,0.6-4.9,1-6.9,2.4
			c-2.5,1.8-4.6,3.7-7.6,4.5c-3,0.8-6.3,1.6-9.3,2.3c-1.9,0.4-3.9,0.8-5.8,1.2c-0.8,0.2-1.7,0.4-2.5,0.6c-2,0.5-4.2,1.2-6,2.2
			c-1.7,0.9-2.6,2.4-4.3,3.4c-3.3,2-7.8,1.6-11.5,1.2c-5.7-0.6-9.1,1.5-13.4,5c-2.7,2.2-6.4,4.3-8.4,7.1c-0.6,0.8-1,1.7-1.6,2.4
			c-0.5,0.7-1.2,1.2-1.8,1.7c-1,0.8-2.1,1.6-3.3,1.7c0.1-1.2,0.2-2.3,0.4-3.4c0.2-1.2,0.4-2.4,0.7-3.6c0.2-0.9,0.4-1.7,0.6-2.6
			c0.5-2.2,1.2-3.7,2.4-5.6c1.4-2.1,2.7-3.2,3.7-5.6c1.2-2.8,2.7-5,5.2-6.6c10-6.5,16.5-17.1,25.5-24.8c3.6-3.1,7.8-6.1,12.6-5.8
			c1,0,2.1,0.3,3.1-0.1c0.8-0.3,1.4-0.9,2.1-1.4c2.2-2,4.8-3.5,7.6-4.6c2.9-1.1,6-1.1,8.8-2.2c2.2-0.8,3.8-2,6-2.7
			c2.3-0.8,4.5-1.4,6.7-2.6c3.4-1.8,6.4-4.4,10.2-5.4c3.7-1,7.6-1,11.4-1.5c3.3-0.4,6.7-0.3,10-0.3c7.6,0,15.2-0.6,22.7,1.1
			c8.2,1.8,16,4.9,23.9,7.4c6.8,2.1,11.6,3.5,17.7,7.3c3.1,2,6.5,3.6,9.4,6c3.4,2.7,7.3,5.1,10.4,8.2c3.2,3.3,6.1,7,9.3,10.2
			c3.3,3.3,3.5,8.5,4.5,12.8c1.1,4.8,2.8,6.6,6.3,10c2.8,2.8,5.8,5.3,8.8,7.9c4.2,3.7,5.2,10.3,7.1,15.2c1.2,3.1,2.1,6.9,1.8,10.3
			c-0.3,3.6-2.3,6.8-1.2,10.5c0.8,2.8,2.3,5,2.7,8c0.4,2.9,1.1,6.1,0.7,9.1c-0.6,4.4-1.1,8.7-2.2,13c-0.8,3.2-0.7,7.4-2.7,10.1
			c-1.5,2-4,2.8-5.7,4.6c-2.1,2.2-3.1,4.4-6.5,4.8c-0.5,0.1-1,0.1-1.3,0.4c-0.2,0.2-0.3,0.5-0.4,0.7c-0.8,2.5-1.5,5-2,7.6
			c-0.4,2.3-0.8,4.8-2.3,6.6c-3.6,4.3-9.3,6.7-14.4,8.5c-3.7,1.3-7.7-0.2-11.4,1.2c-3.7,1.4-6.7,4.2-10.3,5.8
			c-4.2,1.9-9.4,1.3-13,4.1c-0.4,0.3-0.8,0.6-1.3,0.7c-4.9,0.5,3.2-10.5,3.9-11.4c0.8-1.1,1.7-2.2,2.8-3.1c1.2-1,2.6-1.9,3.8-2.8
			c3.9-2.9,8.6-8.8,9.6-13.6c0.3-1.6,0.7-3.3,1-4.9c0.2-0.8,0.3-1.6,0.2-2.5c-0.2-2.4-2.3-5.2-0.8-7.5c0.7-1,1.8-1.6,2.7-2.5
			c3.2-3,2.9-8.2,5.4-11.8c0.6-0.8,1.3-1.5,1.8-2.3c1.9-2.9,0.4-6.3,0.2-9.4C207.4,116.4,206.5,112.3,204.7,108.6z"/>
	</g>
</g>
<rect x="-302.9" y="0" class="st1" width="75.5" height="75.5"/>
<rect x="-302.9" y="94.4" class="st0" width="75.5" height="75.5"/>
<rect x="-302.9" y="190.7" class="st2" width="75.5" height="75.5"/>
</svg>
