<?xml version="1.0" encoding="utf-8"?>
<!-- Generator: Adobe Illustrator 19.2.1, SVG Export Plug-In . SVG Version: 6.00 Build 0)  -->
<svg version="1.1" id="Layer_1" xmlns="http://www.w3.org/2000/svg" xmlns:xlink="http://www.w3.org/1999/xlink" x="0px" y="0px"
	 viewBox="0 0 250.8 252.2" style="enable-background:new 0 0 250.8 252.2;" xml:space="preserve">
<style type="text/css">
	.st0{fill:#58595B;}
	.st1{fill:#BC3227;}
	.st2{fill:#FFF7E7;}
</style>
<g>
	<path class="st0" d="M46.1,143.8c1.8,3.8,4.2,7.4,5.8,11.3c1.4,3.3,1.1,7.2,3.2,10.2c1.1,1.6,2.7,2.7,4.2,3.9
		c5.3,4.3,9.6,10,12.4,16.3c1.1,2.6,1.7,5,3.7,7c2.3,2.3,4.6,2.7,7.3,4.1c1.9,1,3,2.5,4.6,4c6.3,6.1,16.9,9.7,25,12.9
		c6.5,2.5,13.2,2,20,2c2.9,0,6-0.5,8.8-0.9c3.1-0.4,5.8-2,8.6-3.1c2.9-1.1,6-1.6,9-2.4c2.3-0.6,4.9-1,6.9-2.4
		c2.5-1.8,4.6-3.7,7.6-4.5s6.3-1.6,9.3-2.3c1.9-0.4,3.9-0.8,5.8-1.2c0.8-0.2,1.7-0.4,2.5-0.6c2-0.5,4.2-1.2,6-2.2
		c1.7-0.9,2.6-2.4,4.3-3.4c3.3-2,7.8-1.6,11.5-1.2c5.7,0.6,9.1-1.5,13.4-5c2.7-2.2,6.4-4.3,8.4-7.1c0.6-0.8,1-1.7,1.6-2.4
		c0.5-0.7,1.2-1.2,1.8-1.7c1-0.8,2.1-1.6,3.3-1.7c-0.1,1.2-0.2,2.3-0.4,3.4c-0.2,1.2-0.4,2.4-0.7,3.6c-0.2,0.9-0.4,1.7-0.6,2.6
		c-0.5,2.2-1.2,3.7-2.4,5.6c-1.4,2.1-2.7,3.2-3.7,5.6c-1.2,2.8-2.7,5-5.2,6.6c-10,6.5-16.5,17.1-25.5,24.8
		c-3.6,3.1-7.8,6.1-12.6,5.8c-1,0-2.1-0.3-3.1,0.1c-0.8,0.3-1.4,0.9-2.1,1.4c-2.2,2-4.8,3.5-7.6,4.6c-2.9,1.1-6,1.1-8.8,2.2
		c-2.2,0.8-3.8,2-6,2.7c-2.3,0.8-4.5,1.4-6.7,2.6c-3.4,1.8-6.4,4.4-10.2,5.4c-3.7,1-7.6,1-11.4,1.5c-3.3,0.4-6.7,0.3-10,0.3
		c-7.6,0-15.2,0.6-22.7-1.1c-8.2-1.8-16-4.9-23.9-7.4c-6.8-2.1-11.6-3.5-17.7-7.3c-3.1-2-6.5-3.6-9.4-6c-3.4-2.7-7.3-5.1-10.4-8.2
		c-3.2-3.3-6.1-7-9.3-10.2c-3.3-3.3-3.5-8.5-4.5-12.8c-1.1-4.8-2.8-6.6-6.3-10c-2.8-2.8-5.8-5.3-8.8-7.9C6.9,177.6,5.9,171,4,166.1
		c-1.2-3.1-2.1-6.9-1.8-10.3c0.3-3.6,2.3-6.8,1.2-10.5c-0.8-2.8-2.3-5-2.7-8c-0.4-2.9-1.1-6.1-0.7-9.1c0.6-4.4,1.1-8.7,2.2-13
		C3.1,111.9,3,107.7,5,105c1.5-2,4-2.8,5.7-4.6c2.1-2.2,3.1-4.4,6.5-4.8c0.5-0.1,1-0.1,1.3-0.4c0.2-0.2,0.3-0.5,0.4-0.7
		c0.8-2.5,1.5-5,2-7.6c0.4-2.3,0.8-4.8,2.3-6.6c3.6-4.3,9.3-6.7,14.4-8.5c3.7-1.3,7.7,0.2,11.4-1.2c3.7-1.4,6.7-4.2,10.3-5.8
		c4.2-1.9,9.4-1.3,13-4.1c0.4-0.3,0.8-0.6,1.3-0.7c4.9-0.5-3.2,10.5-3.9,11.4c-0.8,1.1-1.7,2.2-2.8,3.1c-1.2,1-2.6,1.9-3.8,2.8
		c-3.9,2.9-8.6,8.8-9.6,13.6c-0.3,1.6-0.7,3.3-1,4.9c-0.2,0.8-0.3,1.6-0.2,2.5c0.2,2.4,2.3,5.2,0.8,7.5c-0.7,1-1.8,1.6-2.7,2.5
		c-3.2,3-2.9,8.2-5.4,11.8c-0.6,0.8-1.3,1.5-1.8,2.3c-1.9,2.9-0.4,6.3-0.2,9.4C43.4,135.9,44.3,140,46.1,143.8z"/>
	<path class="st1" d="M204.7,108.6c-1.8-3.8-4.2-7.4-5.8-11.3c-1.4-3.3-1.1-7.2-3.2-10.2c-1.1-1.6-2.7-2.7-4.2-3.9
		c-5.3-4.3-9.6-10-12.4-16.3c-1.1-2.6-1.7-5-3.7-7c-2.3-2.3-4.6-2.7-7.3-4.1c-1.9-1-3-2.5-4.6-4c-6.3-6.1-16.9-9.7-25-12.9
		c-6.5-2.5-13.2-2-20-2c-2.9,0-6,0.5-8.8,0.9c-3.1,0.4-5.8,2-8.6,3.1c-2.9,1.1-6,1.6-9,2.4c-2.3,0.6-4.9,1-6.9,2.4
		c-2.5,1.8-4.6,3.7-7.6,4.5s-6.3,1.6-9.3,2.3c-1.9,0.4-3.9,0.8-5.8,1.2c-0.8,0.2-1.7,0.4-2.5,0.6c-2,0.5-4.2,1.2-6,2.2
		c-1.7,0.9-2.6,2.4-4.3,3.4c-3.3,2-7.8,1.6-11.5,1.2c-5.7-0.6-9.1,1.5-13.4,5c-2.7,2.2-6.4,4.3-8.4,7.1c-0.6,0.8-1,1.7-1.6,2.4
		c-0.5,0.7-1.2,1.2-1.8,1.7c-1,0.8-2.1,1.6-3.3,1.7c0.1-1.2,0.2-2.3,0.4-3.4c0.2-1.2,0.4-2.4,0.7-3.6c0.2-0.9,0.4-1.7,0.6-2.6
		c0.5-2.2,1.2-3.7,2.4-5.6c1.4-2.1,2.7-3.2,3.7-5.6c1.2-2.8,2.7-5,5.2-6.6c10-6.5,16.5-17.1,25.5-24.8c3.6-3.1,7.8-6.1,12.6-5.8
		c1,0,2.1,0.3,3.1-0.1c0.8-0.3,1.4-0.9,2.1-1.4c2.2-2,4.8-3.5,7.6-4.6c2.9-1.1,6-1.1,8.8-2.2c2.2-0.8,3.8-2,6-2.7
		c2.3-0.8,4.5-1.4,6.7-2.6c3.4-1.8,6.4-4.4,10.2-5.4c3.7-1,7.6-1,11.4-1.5c3.3-0.4,6.7-0.3,10-0.3c7.6,0,15.2-0.6,22.7,1.1
		c8.2,1.8,16,4.9,23.9,7.4c6.8,2.1,11.6,3.5,17.7,7.3c3.1,2,6.5,3.6,9.4,6c3.4,2.7,7.3,5.1,10.4,8.2c3.2,3.3,6.1,7,9.3,10.2
		c3.3,3.3,3.5,8.5,4.5,12.8c1.1,4.8,2.8,6.6,6.3,10c2.8,2.8,5.8,5.3,8.8,7.9c4.2,3.7,5.2,10.3,7.1,15.2c1.2,3.1,2.1,6.9,1.8,10.3
		c-0.3,3.6-2.3,6.8-1.2,10.5c0.8,2.8,2.3,5,2.7,8c0.4,2.9,1.1,6.1,0.7,9.1c-0.6,4.4-1.1,8.7-2.2,13c-0.8,3.2-0.7,7.4-2.7,10.1
		c-1.5,2-4,2.8-5.7,4.6c-2.1,2.2-3.1,4.4-6.5,4.8c-0.5,0.1-1,0.1-1.3,0.4c-0.2,0.2-0.3,0.5-0.4,0.7c-0.8,2.5-1.5,5-2,7.6
		c-0.4,2.3-0.8,4.8-2.3,6.6c-3.6,4.3-9.3,6.7-14.4,8.5c-3.7,1.3-7.7-0.2-11.4,1.2s-6.7,4.2-10.3,5.8c-4.2,1.9-9.4,1.3-13,4.1
		c-0.4,0.3-0.8,0.6-1.3,0.7c-4.9,0.5,3.2-10.5,3.9-11.4c0.8-1.1,1.7-2.2,2.8-3.1c1.2-1,2.6-1.9,3.8-2.8c3.9-2.9,8.6-8.8,9.6-13.6
		c0.3-1.6,0.7-3.3,1-4.9c0.2-0.8,0.3-1.6,0.2-2.5c-0.2-2.4-2.3-5.2-0.8-7.5c0.7-1,1.8-1.6,2.7-2.5c3.2-3,2.9-8.2,5.4-11.8
		c0.6-0.8,1.3-1.5,1.8-2.3c1.9-2.9,0.4-6.3,0.2-9.4C207.4,116.4,206.5,112.3,204.7,108.6z"/>
</g>
<rect x="-302.9" class="st1" width="75.5" height="75.5"/>
<rect x="-302.9" y="94.4" class="st0" width="75.5" height="75.5"/>
<rect x="-302.9" y="190.7" class="st2" width="75.5" height="75.5"/>
</svg>
